<svg id="Layer_1" data-name="Layer 1" xmlns="http://www.w3.org/2000/svg" xmlns:xlink="http://www.w3.org/1999/xlink" viewBox="0 0 362.88 427.6"><defs><style>.cls-1{fill:none;}.cls-2{clip-path:url(#clip-path);}.cls-3{fill:#231f20;}.cls-4{fill:#fc3;}.cls-5{fill:#fff;}</style><clipPath id="clip-path" transform="translate(-69.75 -28.92)"><rect class="cls-1" x="-130.44" y="-212.52" width="760.89" height="984.68"/></clipPath></defs><title>wiessshield</title><g class="cls-2"><path class="cls-3" d="M256,100s-20.35.37-26.95,4.56c-.37.36-.74.72-1.11.72-8.82,1.18-15.92-2.76-21.37-7.4-1.82-1.49-1.78-4.43-3.79-5.18-1.84.71-2.78,2.16-4.08,3.8-3.55,5.46-1.07,12.82,1.63,17.62,1.08,1.85,3,3.4,4.15,5.55-4.09,4.72-10.18,8-16.43,9.53-8.64,1.55-21.89,4-26.72-4.9-1.7-3.12-.23-9.44,6.54-10.37a8.52,8.52,0,0,1,8.39,4.13c1.25,2.4-.06,5.13-.27,7.33a6.1,6.1,0,0,0,4,0c3.32-1.43,5.93-5.43,6.52-8.91,1.17-5.67-1.15-10.65-5-14.18l4.47-5.82c4.21-5.7,1.64-22-7.08-21.72.65,15.66-8.64,17.32-13.41,16.71-.54-.19-1.46-.2-1.27-1.11,6.31-6.53,9.73-16.39,6.54-26-2.3-7-8.64-13.49-16-14.86-7.87-1-16.7.72-21.9,6.35-5.74,5.07-4.94,14.61-12.32,18.19-1.1.54-2.93-.21-3.49.7,3.75,8.48,15.94,1.28,20.81,8.68.35,1.29,2.34,3,.68,4-8.92-5.42-21.35-8.87-32-5-8.48,3-13.54,12.13-13.46,21.48.47,7.16,7.7,21.16,20.9,16-.52-2.21-1.58-4.18-1.57-6.8,0-4.93,9.46-12.09,13.82-5.16a29.77,29.77,0,0,0-.1,8.07c3.08,18.92,22.42,27.22,38.69,32,0,0,6.47,2.06,4.49,7.75-1.51,4-4.47,6.19-8.34,8-1.84.35-3.87,1.42-5.7.85-1-5.14.07-7.36-5-14.36s-13.86-6-19.68-10.87c-3.63-3-5.6-7-7.94-10.91-7.78,4.39-6,17.32-5.21,22.49.17.56.71,2.21-.58,2.2l-7.85-2.66a25.42,25.42,0,0,0-26.73,11.05c-5.58,7.09-4.78,16.82-5.25,25.8l-.4,1.17c-1.11,1.45-3.65.43-5.3.42-1.48.71-1.69,2.91-1.71,4.93a12.49,12.49,0,0,0,5,8.86c3.81,3.34,10.41,3.42,15.2,1.46a24.44,24.44,0,0,0,11.59-18.57c.78-3.47-.84-6.61.67-10.08a3.23,3.23,0,0,1,3.69-2c4.92,3,6.51,8.33,10.31,12.22,3.45,3.34,6.89,6.5,11.64,8.58l-.38.54c-9,3.38-17.68,6.4-25.8,11.44-16.25,9-29.43,27.37-28.78,45.51s3.51,28.68,23.33,43.74c-.06,4.77.25,9.54,3.51,12.88,5.8,5.57,15,6,21.71,10,4.73,2.81,7.62,7.06,7,13.1a7,7,0,0,1-5.57,5.62c-2.57.34-4.19-2.43-6-3.55-.73-.38-1.11.35-1.3,1.08-.39,2.38-1,5.86,1.57,7.36,4.72,4.09,12.23,4.54,18.31,2.6,7.19-3.59,13.13-9.94,14.34-18.54,1.74-8.23-1.65-16.16-6.71-22.27l-.36-1.11c4.09-4.53,7.64-10.17,8.27-16.59.57-1.46-1.23-10.5-5-11.06a14.63,14.63,0,0,1-7.39,4.87c-1.29.35-3.5,1.24-4.4-.06,4.65-5.44,9.3-11.26,8.66-19.33-.79-10.83-15.22-21.35-16.78-23.31s-1.43-3-1.43-3c-4.78.86-8.5,5.22-10.56,9.23-2.45,4.92-2.35,12.63,1.09,16.52.9,1.47,3.27,2.23,3.61,4.26-3.54,5.09-10.34,6.3-16.19,4.76-2-1.12-4.21-2.5-4.71-4.83-3.62-16.71,12.88-37.74,32.12-33.73,7.15,1.49,9.49,6.38,19.33,9.4.89.27,8.76,1.37,9.48,2.48l1.47-41.08L183,200s20.95-19.37,32.22-26.21c6.83-4,15.1-5.14,22.64-7.62H239c-5.17,3.61-11.07,6.11-15.52,10.46-6.5,6.34-10.07,14.18-11.83,23.15,3,.78,43.29.78,43.29.78" transform="translate(-69.75 -28.92)"/><path class="cls-4" d="M151.43,63.32c.35.92-.58.94-1.29.72-3.11-1-6.91-.39-9,1.91-.69.74-2.41,1.8-2.24,3.09,3.49-.33,9.2-2.46,11.17,1.6-2.21.52-5.4.54-7.72,1.37-4.15,1.49-9.55,5-14,2.78-.81-.44.19-.74.19-.74,7.21-5.23,7.18-18.07,18.52-15.55,2.19.94,3.08,3,4.35,4.82" transform="translate(-69.75 -28.92)"/><path class="cls-5" d="M157.59,69.44c2.81,11-2.46,22.53-7.71,32V102c15.29-5.28,24.57.84,26.37,3.24l-.37.36c-9.13-3.59-20.7-1.52-27.39,5.37-4.81,4.82-3.28,11.85,2.22,17.78,5.63,6.09,15.28,10.7,18,14.18.17.92-.74.54-1.11.72-9.49-4.14-21-7.21-25.84-17.36-2.32-5-3.7-12.51-1.07-18,4.34-10.59,13.44-19.83,14.5-32.66l-.07-9.72c1.28.56,2.07,2.14,2.53,3.51" transform="translate(-69.75 -28.92)"/><path class="cls-4" d="M119.55,91.55c-5.33.82-9.59,2.47-11.46,7.94.77,1,2-.57,2.76-1.07,4.25-2.33,10.86-3.36,15,.18.57.64,1.08,1.29.89,2-3.64-2.42-8.9-1.46-12.29.41C106,105.71,107,114,107,114c-1.81-.09-3.35-1.8-4.37-3-8.86-10.27,1.51-21.82,8.34-22.64,3.3-.4,6.22,1.35,8.58,3.21" transform="translate(-69.75 -28.92)"/><path class="cls-4" d="M215.79,126.43c-7.8,8.16-17.42,15.75-27.19,20.22-.38.73.35,1.1,1.08,1.11,4.78-.86,8.66-3.56,13.09-5.53l13.86-8.64h.54c-2.06,4.19-5.58,6.72-8.73,9.8-6.85,5.42-15,10.28-21.64,15.88v.55c2.19.58,4.23-1.05,6.07-1.57,8.48-3.94,16.62-9.53,24.2-14.76l.55.19c-2.85,8-10.62,14.18-18,18.13-6.85,6.15-12.46,15.26-23.64,14.39l-3.85-.41c-.55.36-.2,1.47.16,2,2.9,3,6.55,4.48,10.39,5.81.73.56,0,1.21-.2,1.46-7.23,6.89-15.92,12.65-27.26,10.14-11.34-3.07-17.84-11.58-26.36-19.75-1.46-1.12-3.27-2.61-5.11-2.63a117.5,117.5,0,0,1,11.58,13.52c3.44,4.08,7.4,9.81,12.51,12.62,0,0,.52.19.36.55-3,3.21-6.65,4.14-9.79,5.94-14.39,7.17-30.95,11.37-41.19,24.27a49.26,49.26,0,0,0-11,26.84c-1.8-2.41-1.76-6.08-1.54-9.19.09-7.34,2.55-14.28,5.92-20.47,10.11-16.76,30.54-23.3,47.85-29.33a1.24,1.24,0,0,0,.57-1.65c-4-2.8-8.93-5-12.18-8.76-8.18-6.7-10.43-18.28-22.33-20.07.2-1.46,1.68-2.36,2.79-3.09,5.55-3.78,13.43-3.87,20-2.14.74-.18.57-1.28.21-1.47-3.78-3.61-7.29-16.75-5.25-21.88,3.22,6.64,7.73,13.47,14.47,17.22,4.92,2.44,10.58,5.08,11.23,11.69a12.33,12.33,0,0,1-3.39,8.21c.88,2.39,2.88,4.07,4.7,5.74,4.71,4.46,12.56,7.48,19.38,4.63-.72-1.29-2-1.49-3.08-2.79-2.54-2.41-4.33-6.1-3.56-9.76,4-1.42,8.83-2.28,12-5.18,5-4.7,8.76-12.36,6.46-19.73-.87-3.67-1.74-5.88-4.43-11.26,16,.49,25.91-5.54,34.62-14.06l5.3,2.08Z" transform="translate(-69.75 -28.92)"/><path class="cls-5" d="M103,158.66c-2.61,3.46-8.83,4.76-9.63,10.07-.2,1.83-2.8,17.48-5,22-1.31,2.37-3,4.73-5.39,5.81-1.65.34-3.67.69-4.58-.42,5-2.7,6.53-9.28,6.78-14.6-.1-7.7,2.23-18.13,10.7-21.51a15.72,15.72,0,0,1,7.17-1.39" transform="translate(-69.75 -28.92)"/><path class="cls-4" d="M219.41,161.5c-6.86,6.34-13.54,13.05-22.56,15.87-1.34.28-2.95,1.25-4.4.5,7-2.48,11.1-8.67,16.47-12.82,3-2,6.1-4,9.77-4.66l.92.2Z" transform="translate(-69.75 -28.92)"/><path class="cls-3" d="M141.31,175.26c3.42,5.54,7.75,11.64,14.89,13,4,1.15,8.79.84,12.64.88-.57,1.09-2.72,2-4.06,2.34-5.7,1.21-11.43.67-15.93-2.39-9.41-6.42-12-16.28-12.58-21.79a12.05,12.05,0,0,0-1.43-3.68c3.45,3,3.94,8.11,6.47,11.63" transform="translate(-69.75 -28.92)"/><path class="cls-5" d="M121.05,270.45c1-1,1.17.13,1.17.13a7.6,7.6,0,0,1-1.71,5.12c-3,3.63-8.67,4.11-12.69,3a14.8,14.8,0,0,1-5.1-3.17c.38-.73,2-.71,2.94-.52a16.42,16.42,0,0,0,15.39-4.52" transform="translate(-69.75 -28.92)"/><path class="cls-5" d="M119.28,287.07a41.05,41.05,0,0,0,23-3.42c.21,3.91-10.71,10.47-23.08,8.49C98.5,288.85,97.37,278,97.37,278c2.38.76,8.35,7.17,21.91,9.08" transform="translate(-69.75 -28.92)"/><path class="cls-5" d="M138.58,314.05c0,.92,2.89,8-1.1,15.76-.56.18-.76,1.83-2.23,1.81a.78.78,0,0,1-.72-.74c1.69-3.65,1-13.25-.18-15.78-3.94-8.48-12.81-11.28-20.72-15.83-1.92-1.1-4.12-2.75-6-4.1-1.06-.76.17-1.07.56-.91,12.45,2.53,25.41,7.26,30.4,19.79" transform="translate(-69.75 -28.92)"/><path class="cls-4" d="M155,207.36l.12,26.17c-1.95,1.83-7.58-.31-9.2-1.18-7.84-4.31-17.51-9-27.26-5.83a35.5,35.5,0,0,0-26,28.67c-1,2.93-.52,6.67-1,9.71,0,0-.13,1.94-.9-1.66-2.44-18.07,9.39-34.37,24.16-42.45,10.32-4.83,21.18-7.82,31.14-13,1.34-.53,7-3.1,9-.41" transform="translate(-69.75 -28.92)"/><path class="cls-4" d="M126.93,243.68c2,1.15,8.37,7.27,10.49,12.77,1,2.08,1,6.43.28,7.89h-.37c-1.57-6.81-7.4-10.54-10.81-16.27-1.3.72-.27,2.45.14,3.31,3.6,6.09,7.56,12,6.37,19.51-2,.34-2.16-2.78-3.25-3.89-4.89-5.74-11.8-10.78-10.59-19.38a14.18,14.18,0,0,1,3.93-7.47c1.65.75,1.81,2.37,3.81,3.53" transform="translate(-69.75 -28.92)"/><path class="cls-4" d="M218.34,112.34c.9,1.84-.59,3.29-1.34,4.57-6.22-1.36-12-5.46-13.24-12.08l.19-.55c4.36,3.54,10.59,3.61,14.39,8.06" transform="translate(-69.75 -28.92)"/><path class="cls-3" d="M246.35,100s20.36.37,27,4.56c.37.36.74.72,1.11.72,8.82,1.18,15.93-2.76,21.37-7.4,1.82-1.49,1.78-4.43,3.79-5.18,1.85.71,2.78,2.16,4.08,3.8,3.55,5.46,1.07,12.82-1.62,17.62-1.08,1.85-3,3.4-4.16,5.55,4.09,4.72,10.18,8,16.44,9.53,8.63,1.55,21.89,4,26.72-4.9,1.69-3.12.22-9.44-6.55-10.37a8.5,8.5,0,0,0-8.38,4.13c-1.26,2.4.06,5.13.27,7.33a6.13,6.13,0,0,1-4,0c-3.32-1.43-5.93-5.43-6.52-8.91-1.17-5.67,1.16-10.65,5-14.18l-4.47-5.82c-4.22-5.7-1.65-22,7.08-21.72-.66,15.66,8.64,17.32,13.4,16.71.55-.19,1.46-.2,1.27-1.11-6.31-6.53-9.73-16.39-6.54-26,2.3-7,8.64-13.49,16-14.86,7.88-1,16.7.72,21.9,6.35,5.75,5.07,4.94,14.61,12.32,18.19,1.11.54,2.93-.21,3.49.7-3.75,8.48-15.94,1.28-20.8,8.68-.35,1.29-2.35,3-.69,4,8.92-5.42,21.35-8.87,32-5,8.47,3,13.53,12.13,13.45,21.48-.46,7.16-7.7,21.16-20.9,16,.53-2.21,1.58-4.18,1.57-6.8,0-4.93-9.46-12.09-13.81-5.16a29.38,29.38,0,0,1,.09,8.07c-3.08,18.92-22.42,27.22-38.69,32,0,0-6.47,2.06-4.49,7.75,1.51,4,4.47,6.19,8.35,8,1.83.35,3.87,1.42,5.69.85,1-5.14-.06-7.36,5-14.36s13.87-6,19.68-10.87c3.63-3,5.6-7,7.94-10.91,7.78,4.39,6,17.32,5.21,22.49-.17.56-.7,2.21.58,2.2l7.86-2.66A25.41,25.41,0,0,1,420,161.72c5.58,7.09,4.78,16.82,5.25,25.8l.4,1.17c1.11,1.45,3.66.43,5.31.42,1.47.71,1.68,2.91,1.71,4.93a12.53,12.53,0,0,1-5,8.86c-3.81,3.34-10.41,3.42-15.2,1.46a24.44,24.44,0,0,1-11.59-18.57c-.77-3.47.84-6.61-.67-10.08a3.23,3.23,0,0,0-3.69-2c-4.92,3-6.5,8.33-10.31,12.22-3.44,3.34-6.89,6.5-11.64,8.58l.38.54c9,3.38,17.68,6.4,25.81,11.44,16.24,9,29.42,27.37,28.78,45.51s-3.52,28.68-23.33,43.74c.05,4.77-.26,9.54-3.52,12.88-5.8,5.57-15,6-21.71,10-4.73,2.81-7.61,7.06-7,13.1a7,7,0,0,0,5.56,5.62c2.57.34,4.19-2.43,6-3.55.73-.38,1.11.35,1.3,1.08.4,2.38,1,5.86-1.56,7.36-4.72,4.09-12.24,4.54-18.31,2.6-7.2-3.59-13.14-9.94-14.34-18.54-1.75-8.23,1.64-16.16,6.7-22.27l.36-1.11c-4.09-4.53-7.64-10.17-8.26-16.59-.57-1.46,1.22-10.5,5-11.06a14.63,14.63,0,0,0,7.39,4.87c1.29.35,3.5,1.24,4.4-.06-4.65-5.44-9.3-11.26-8.66-19.33.79-10.83,15.22-21.35,16.78-23.31s1.43-3,1.43-3c4.78.86,8.5,5.22,10.57,9.23,2.44,4.92,2.35,12.63-1.09,16.52-.9,1.47-3.28,2.23-3.62,4.26,3.54,5.09,10.34,6.3,16.19,4.76,2-1.12,4.21-2.5,4.71-4.83,3.62-16.71-12.88-37.74-32.12-33.73-7.14,1.49-9.49,6.38-19.33,9.4-.89.27-8.76,1.37-9.48,2.48l-1.46-41.08L319.36,200s-21-19.37-32.22-26.21c-6.84-4-15.1-5.14-22.65-7.62h-1.1c5.18,3.61,11.07,6.11,15.53,10.46,6.49,6.34,10.07,14.18,11.82,23.15-2.95.78-43.29.78-43.29.78" transform="translate(-69.75 -28.92)"/><path class="cls-4" d="M351,63.32c-.36.92.57.94,1.29.72,3.1-1,6.9-.39,9,1.91.68.74,2.4,1.8,2.23,3.09-3.48-.33-9.19-2.46-11.17,1.6,2.21.52,5.4.54,7.72,1.37,4.15,1.49,9.55,5,14,2.78.81-.44-.19-.74-.19-.74C366.6,68.82,366.63,56,355.29,58.5c-2.19.94-3.08,3-4.34,4.82" transform="translate(-69.75 -28.92)"/><path class="cls-5" d="M344.78,69.44c-2.8,11,2.47,22.53,7.71,32V102c-15.29-5.28-24.56.84-26.37,3.24l.37.36c9.13-3.59,20.71-1.52,27.39,5.37,4.81,4.82,3.28,11.85-2.22,17.78-5.63,6.09-15.28,10.7-17.95,14.18-.17.92.74.54,1.11.72,9.49-4.14,21-7.21,25.84-17.36,2.33-5,3.71-12.51,1.07-18-4.34-10.59-13.43-19.83-14.5-32.66l.07-9.72c-1.28.56-2.07,2.14-2.53,3.51" transform="translate(-69.75 -28.92)"/><path class="cls-4" d="M382.82,91.55c5.33.82,9.59,2.47,11.47,7.94-.78,1-2-.57-2.77-1.07-4.24-2.33-10.86-3.36-15,.18-.58.64-1.09,1.29-.9,2,3.64-2.42,8.91-1.46,12.29.41,8.48,4.68,7.49,12.93,7.49,12.93,1.81-.09,3.35-1.8,4.37-3,8.86-10.27-1.5-21.82-8.34-22.64-3.29-.4-6.22,1.35-8.58,3.21" transform="translate(-69.75 -28.92)"/><path class="cls-4" d="M286.58,126.43c7.8,8.16,17.42,15.75,27.2,20.22.37.73-.36,1.1-1.09,1.11-4.78-.86-8.66-3.56-13.08-5.53l-13.86-8.64h-.55c2.06,4.19,5.58,6.72,8.73,9.8,6.85,5.42,15,10.28,21.65,15.88v.55c-2.19.58-4.23-1.05-6.07-1.57-8.48-3.94-16.62-9.53-24.2-14.76l-.54.19c2.84,8,10.62,14.18,18,18.13,6.86,6.15,12.46,15.26,23.64,14.39l3.85-.41c.55.36.2,1.47-.16,2-2.9,3-6.55,4.48-10.39,5.81-.72.56,0,1.21.21,1.46,7.23,6.89,15.91,12.65,27.26,10.14,11.33-3.07,17.83-11.58,26.36-19.75,1.45-1.12,3.27-2.61,5.1-2.63a118.5,118.5,0,0,0-11.58,13.52c-3.43,4.08-7.4,9.81-12.5,12.62,0,0-.53.19-.36.55,3,3.21,6.65,4.14,9.78,5.94,14.4,7.17,30.95,11.37,41.19,24.27a49.26,49.26,0,0,1,10.95,26.84c1.81-2.41,1.76-6.08,1.54-9.19-.08-7.34-2.55-14.28-5.92-20.47-10.1-16.76-30.54-23.3-47.85-29.33a1.25,1.25,0,0,1-.57-1.65c4-2.8,8.93-5,12.19-8.76,8.17-6.7,10.42-18.28,22.32-20.07-.2-1.46-1.68-2.36-2.79-3.09-5.54-3.78-13.43-3.87-20-2.14-.74-.18-.57-1.28-.2-1.47,3.77-3.61,7.29-16.75,5.24-21.88-3.22,6.64-7.72,13.47-14.47,17.22-4.92,2.44-10.58,5.08-11.23,11.69a12.29,12.29,0,0,0,3.4,8.21c-.89,2.39-2.89,4.07-4.7,5.74-4.72,4.46-12.57,7.48-19.39,4.63.72-1.29,2-1.49,3.09-2.79,2.53-2.41,4.33-6.1,3.55-9.76-4.05-1.42-8.83-2.28-12-5.18-5-4.7-8.77-12.36-6.47-19.73.87-3.67,1.75-5.88,4.43-11.26-16,.49-25.9-5.54-34.62-14.06l-5.3,2.08Z" transform="translate(-69.75 -28.92)"/><path class="cls-5" d="M399.38,158.66c2.61,3.46,8.83,4.76,9.63,10.07.21,1.83,2.8,17.48,5.05,22,1.32,2.37,3,4.73,5.39,5.81,1.66.34,3.68.69,4.58-.42-5-2.7-6.53-9.28-6.77-14.6.09-7.7-2.23-18.13-10.71-21.51a15.69,15.69,0,0,0-7.17-1.39" transform="translate(-69.75 -28.92)"/><path class="cls-3" d="M361.06,175.26c-3.42,5.54-7.75,11.64-14.88,13-4,1.15-8.8.84-12.65.88.57,1.09,2.72,2,4.07,2.34,5.7,1.21,11.43.67,15.92-2.39,9.42-6.42,12-16.28,12.59-21.79a11.89,11.89,0,0,1,1.42-3.68c-3.45,3-3.94,8.11-6.47,11.63" transform="translate(-69.75 -28.92)"/><path class="cls-4" d="M348.69,207.24l-.24,26.41c1.84.53,6.34-.43,8-1.31,7.84-4.3,17.51-9,27.26-5.82a35.52,35.52,0,0,1,26,28.67c.95,2.93.51,6.67,1,9.71,0,0,.13,1.94.89-1.66,2.44-18.07-9.39-34.37-24.15-42.45-10.33-4.83-21.19-7.82-31.15-13-1.34-.53-5.8-2-7.62-.53" transform="translate(-69.75 -28.92)"/><path class="cls-4" d="M375.44,243.68c-2,1.15-8.36,7.27-10.49,12.77-1,2.08-1,6.43-.27,7.89H365c1.58-6.81,7.4-10.54,10.82-16.27,1.29.72.27,2.45-.15,3.31-3.59,6.09-7.56,12-6.37,19.51,2,.34,2.17-2.78,3.25-3.89,4.89-5.74,11.8-10.78,10.6-19.38a14.2,14.2,0,0,0-3.94-7.47c-1.64.75-1.81,2.37-3.81,3.53" transform="translate(-69.75 -28.92)"/><path class="cls-5" d="M381.32,270.45c-1-1-1.17.13-1.17.13a7.55,7.55,0,0,0,1.72,5.12c3,3.63,8.67,4.11,12.68,3a14.8,14.8,0,0,0,5.1-3.17c-.37-.73-2-.71-2.94-.52a16.43,16.43,0,0,1-15.39-4.52" transform="translate(-69.75 -28.92)"/><path class="cls-5" d="M383.09,287.07a41,41,0,0,1-22.95-3.42c-.21,3.91,10.7,10.47,23.07,8.49C403.88,288.85,405,278,405,278c-2.37.76-8.35,7.17-21.91,9.08" transform="translate(-69.75 -28.92)"/><path class="cls-5" d="M363.79,314.05c0,.92-2.89,8,1.11,15.76.55.18.75,1.83,2.22,1.81a.77.77,0,0,0,.72-.74c-1.69-3.65-1-13.25.19-15.78,3.93-8.48,12.8-11.28,20.72-15.83,1.92-1.1,4.11-2.75,6-4.1,1.06-.76-.16-1.07-.56-.91-12.44,2.53-25.41,7.26-30.4,19.79" transform="translate(-69.75 -28.92)"/><path class="cls-4" d="M282.55,112.34c-.89,1.84.59,3.29,1.34,4.57,6.22-1.36,12-5.46,13.24-12.08l-.18-.55c-4.36,3.54-10.6,3.61-14.4,8.06" transform="translate(-69.75 -28.92)"/></g><g class="cls-2"><path class="cls-3" d="M155.47,199.53s-.24,178.49-.24,195.61c0,19.32,13.42,28.68,25.91,32.28,19.56,5.62,37.78,8.33,49.85,12.72,13.73,5,17.76,13.13,18.37,13.87.77.92,1.11,2.51,2.54,2.51s1.76-1.58,2.53-2.51c.61-.73,4.65-8.86,18.37-13.86,12.08-4.4,30.29-7.1,49.85-12.73,12.49-3.59,25.92-13,25.92-32.27,0-17.12-.24-195.61-.24-195.61" transform="translate(-69.75 -28.92)"/><path class="cls-4" d="M161.92,315.93l-.25,70.87s-1.46,19.32,7,25.92,11.37,7.95,33.25,12.6c13.6,2.88,29.48,7.05,39.49,11.73,6.56,3.07,8.81,6,10.52,8.56,1.71-2.57,3.8-5,10.36-8,10-4.68,25.88-8.85,39.49-11.74,21.88-4.64,24.94-6.08,33.25-12.59s7-25.92,7-25.92L341.66,316Z" transform="translate(-69.75 -28.92)"/></g><g class="cls-2"><path class="cls-3" d="M256.51,357.61c-.1,9,3.86,17.11,6.71,24.85-4.62,3.06-10.67,2.62-15.11,5.87-5,3.06-8.17,8.53-9.71,14.38-.55,1.17-1.55,2.68-2.6,2.9a6.92,6.92,0,0,0-.14-3.12c-.35-1.84-1.61-3.5-2.14-5.16h-.19c-1.29,1.08-1.13,3.1-1.7,4.56-.92,1.88-2.06,3.83-4.09,4.36.22-2.94-1.22-5.34-2.29-7.55-1.11.54-1,2.12-1.13,2.56-.44,2-2.27,5.84-5.21,6.35.59-3.48-1.76-6.25-2.09-9.74-.35-1.66.77-3.29-.13-4.77-3.68,1.42-7.38,4.13-9.07,7.78,0,1.65,1.24,3.13,1.4,5,2.75.59,4.74,2.45,6.37,4.85.59,1,1.05,4.41-.62,5.86-.93.72-1.86,1.81-3.14,1.43a6.24,6.24,0,0,1-2.8,4c-1.82-.57-1.41-4.42-3.81-3.34a3.59,3.59,0,0,1-2.53-2.79c-.51-3.3,2.09-6.39-.45-9,0,0-.14-.16-.73.17s-.61,7.77-5,7.46a7.18,7.18,0,0,1-4.35-4.27c-1.65-.2-4.18,1-5.32-.06-1.62-3,4.81-4,1.36-6.59a4.74,4.74,0,0,1-.85-5.51,8,8,0,0,1,7.72-1.56c.37.1.18-.18.18-.18-2.85-2.61-5.36.85-8.34-2.06-3.38-3.3.57-7.57-3.26-9.08-.55-.38-2-.21-1.46-1.12,1.86-1.45,4.23-.5,6.43-.48,2.22-1.44,6.08-2.31,9-1,3.82,2.25,3.76,7,4.45,11.06.54.73,1.65,0,2.21-.53,3.33-2.34,6.85-5.42,10.36-7.94v-.37c-4.58-.79-7.84-4.31-12.79-4a8,8,0,0,1,4.25-3.07,32.24,32.24,0,0,1,9.2-2.28c-.72-1.84-3.88-2.22-4.93-2.44a15.16,15.16,0,0,0-2.2,0c0-1.65,1.85-2.77,2.79-3.26,4.55-1.83,14.38-1,14.7-1.85-.5-1.45-3.46-2.61-5.28-3.54,1.13-2.19,5.33-2.33,7.18-2.31,6.77,1.37,12.5-2.23,18.2-3.82,3.5-1.06,10.18-1.32,10.63-1.53s.35.92.35.92" transform="translate(-69.75 -28.92)"/><path class="cls-3" d="M230.65,313.48c13.81-.76,40.78-1.1,43.22-.73a8.88,8.88,0,0,1,5.31,3.18,9.75,9.75,0,0,0,.2,2.34c-.95,2.93-4.15,4.38-6.3,5.25-2.21,1.07-6,0-7.52-.09-.51,0,0,1.1,0,1.1,4.1,10,10.76,20.12,20.61,25.18,3.1,1.14,5.08,4.28,8.57,4.33,2.39-.89,2.55-3.79,3-5.29,1.36-6.58-.58-13.58-5.85-17.67-2.18-1.86-5.29-2.08-5.63-5,1.29,0,2.38,1.13,3.66,1a23.2,23.2,0,0,1,7.15.27c3.84,1,6.18,4.84,7.05,8.7a12.49,12.49,0,0,0,4.12-6.92A44.66,44.66,0,0,0,310,315.93h4.28a51,51,0,0,1-.67,10.27,52.42,52.42,0,0,1-4.76,15c3.53-3.81,9-4.66,14.36-4.6-1.73,6.95-9.64,8.14-14.81,11.75-3.35,4.17-6.14,7.63-9.49,11.26-1.15,4,2.66,7.36,1.33,12.11-.64,7.33,2,14,5.82,19.33.54.92,1.08,2.21.15,2.93-1.08-1.48-2.91-1.68-4.38-2.06,0,1.28,1.26,2.58,1.61,3.68,1.25,2.77,1.21,6.62-.83,8.61-.34-2.93-3.81-3.71-4.88-6.11-.91-.56-2-1.3-2.75-.58a62.24,62.24,0,0,1,.09,8.44c-.05.52-.39,1.28-1.12,1.09L291,403.14c-1.29-.38-1.82-2-2.91-2.42a42.36,42.36,0,0,0,0,11.74s-.1.6.73.92c5.18,1.05,10.48-2.81,16.15-1.09,1.46.75,2.91,2,2.89,3.7.16,2.21-1.51,3.84-3.18,5.1a7.06,7.06,0,0,0-5.55,4.53c-.7,1.86-2.41,1.68-2.57.59a8.52,8.52,0,0,0-.53-2.1c-.91-1.11-2.39.15-3.67.14a2.31,2.31,0,0,1-1.82-1.31c-1.5,2.92-6.61.48-7,3.95-.56,1.47-1,4-2.79,4-1.09-.93,0-2-.34-2.94-.72-.93-1.44-2.4-2.53-2.6-.93.91-1.32.53-3.13.15-2.05-.44-2.53-2.6-4-4.08-1.3,1.45.51,3.49.67,4.95l-2.75.16c-2,.16-3.26-3.16-5.49-1.35-2.38.7-3,2.72-4.81,4-.91-.2-.53-1.29-1.07-2-1.61-3.51,3.55-5.65,1.2-8.61a6.09,6.09,0,0,1,2.82-6c7-4.31,13,5.47,20.7,2.08.74-.72.75-2,.77-2.92-.51-3.68.09-7.71-.43-10.83-1.67,1.63-2.43,4-5,4.71-1.47.35-2,2.18-3.33,2.89-.9-1.48-.14-3.67.43-5.49.39-1.83,2.6-3.09,2.26-4.93-1.85,1.63-3.7,2.71-5.19,4.71a1,1,0,0,1-1.47,0c-.51-2.94.62-5.67,1.38-8.24l-.18-.36a2,2,0,0,0-1.66.71c-1.29.9-3.68,1.42-4.43,3.25a2.54,2.54,0,0,1-.53-2.57c1.52-4.21,4.33-9.12,1.82-13.74a30.17,30.17,0,0,1-5.73-12c-2.49-6.64-2.58-14.71-3.6-21.69-.38,1.46.14,3.49-1.15,4.21-1.8-2.59-4.72-4.09-7.09-5.41-4.55-2.62-10.05-3.23-13.48-7.12,2.06-4,5.4-7.46,7.1-11.66-3.77,8.76-14.28,14-19,22.52-.93,1.64-2.61,4-5,3.61a4.82,4.82,0,0,0,.24-4.95c-1.51,3.47-5.22,6.73-9.07,6.68-.17-.74.57-1.28.94-1.82.2-1.28,1-2.74.23-3.85-.75,1.09-1.12,1.82-1.87,2.91-1.67,1.82-4.08,4.17-6.83,3.59.58-2,2.62-3.82,1.54-6.22h-.36c-1.87,2.91-5.73,3.78-9.22,3.92a10.4,10.4,0,0,0,1.56-7.5c-3.48-.22-6.26,1.58-9.56,2.09-1.29.54-3.13.7-4.06,1.61-1.34,4.56,1.38,7.35,1.89,11.39,0,2.38-.44,5.49-3,6.56-1.48.35-2.94-.4-4.21-1.15a10.18,10.18,0,0,1-7.7-.27c-1.62-2.4,2.57-.34,2.05-2.91-1.27-1.48-2.34-3.33-1.22-5.52.38-.72,1.85-.71,2.57-.33.92.19,1.84-.16,1.85-1.26,0-.56-1.28-.39-2-.58-2.19-.58-2-2.77-3.07-4.07a16.29,16.29,0,0,1-5.1-3A5.76,5.76,0,0,1,163,345c1.49-1.64,2.38.94,3.85.77.54.38,1.1-.35,1.29-.9-.71-2,2.81-4.73-.48-5.51-.72-1.84-.15-3.66.24-5.49-.53-1.66-3.46-1.88-2.7-4.07a9.26,9.26,0,0,1,7.91-1.74c1.1-.35,2.39-1.07,3.67-.69,2,.39,2.91,2.6,4,4.45,1.43,3.68-1.73,6.76-1.77,10.43a2.63,2.63,0,0,0,2,1.67c3.85-.13,7.89-.45,10.67-3-.54-1.11-2.19-.94-2.73-1.86-.91-.57-2.38-.58-2.73-1.5,1.31-2.56,4.78-1.41,7.36-1.75l.37-.36c-1.64-1.49-4-2.07-5.84-3.19.2-.73.93-.54,1.3-1.27a9,9,0,0,1,8.08-.64c.37-.18,1.29-.17,1.29-.9-2.56-.21-4.37-1.88-6.93-2.47,0-.36,0-.73.37-.91,4.26-3.8,10.86-3.54,16.74-3.83,5.33-1.41,9.39-3.93,13.65-7.18a28.5,28.5,0,0,1,8.09-1.56" transform="translate(-69.75 -28.92)"/><path class="cls-4" d="M230.65,313.48a10,10,0,0,0,9.33,2.13c3.27,2.24,7.51.27,11.36.68,2.92,1.32,5.33-.85,7.36-2.11l3.47,1.14c2.56.95,5-.31,6.62-1.76-1.81-2-4.54-3.35-5.61-6.3-.51-2.75-3.84-1-4.91-2.8,3.31-1.06,7.35-1.94,10.49-3.73a14.65,14.65,0,0,0,7.11-11.47c.81-9.33.76-18.52,2-27.67,1-2.93,2.09-5.85,4.86-7.83l22.54-13.67c12.18-7,25.33-17.5,23.33-34.58-.53-2-2.2,0-2.58.52a71.53,71.53,0,0,1-12.44,13.43c-12.42,11.59-27,21.14-41.79,29.4-3.33,2.35-8.5,4.67-8,9.81.61,10.83,2.5,21.67-.74,32.09-1.12,2-2.44,4.55-4.11,6,0,0-.43.21-.17-.19,3.12-5.55,3.29-14.81,3.2-22.88a98.9,98.9,0,0,1-.93-14.87c-1.32,2.92-3.37,6.2-7,6.15-2.61-.45-6.4-1.9-7.83-4.67,1.66-.53,3.13.54,4.76.79,1.46.22,4.75,1.15,5.51-.86-.54-.74-1.83-.57-2.18-1.67a11.24,11.24,0,0,1,1.85-1.26c-1.27-1.12-3.65-1.7-5.1-3.36-.18-.37-1.08-1.12-.34-1.66,4.06,1.05,8.1,3.71,10.78,3.25.62-.38.56-.73.56-.73.59-3.48-1.76-6.26-3.2-9.21,2.07-3.64,2.29-7.68,1.79-11.9a13.22,13.22,0,0,0-.13-3.85c-4.25,2-3.77,8-8.37,9.44-.73.36-2.2.34-2.37-.76,1.69-3.47.27-7.52-1.16-10.47-.54-1.11,0-2.94-.87-4.05-4.06,1.61-2.29,7.31-4.71,10.22-2.61,4-6.41-.44-10.1,1.16-2.55.71-3.53,3.81-5.38,5.26-4.77-.24-10.62-1-13.61,3.51a6.51,6.51,0,0,0,.48,5.87c2.35,2.41,3.17-2,4.06-2.52,1.31-1.6,4-1.05,5.87-.11a34.44,34.44,0,0,1,10.22,4.89c1.09.74,3.29.59,4.19,1.88-3.19,6.2-11.6,4.45-17.83,3.82-.37,0-.38.55,0,.92,6,1.9,10.92,7.1,17.89,7,1.83-.17-.17-1.66.94-2.38.9,2,1.62,3.54,4.57,4.71s3.46-1.31,5.66-1.1a24.36,24.36,0,0,0,6.19,4.11c.9.92,2.75,0,3.28,1.32a8.87,8.87,0,0,1-8.79-.47c-1.45-1.67-3.47-1.51-5.31-.8-1.83-.2-3.29-1.32-4.75-2.25-4-1-5.35,3-7.93,4.12.55.37,1.46.38,1.82.94-1.67,1.81-4.24,2.15-6.09,3.41-.21,2,2.56,1.13,3.64,2.25-3.33,2.71-8.87,5.76-13.79,2.95-2.36-1.86-3.62-3.89-5.61-5.93-1.05.71-1,1.16-1.28,3.23s1,3.73.07,5.74c-2.52-3.7-2.64-8.84-3.14-13.43-.35-1.28-.7-3.31-2.34-3.69-2.25,2.49-2.66,8.82-2.68,9.32s-.37,0-.37,0c-2.87-4.81-.57-13.22-7-15.49,1.07,3,0,9.33-.48,10.08-.32.55-.74,0-.74,0l-4.88-5.38c-1.8-2.77-5.45-5-6.51-8.32,1.5-2.92,5.35-2.14,7.39-3.95,2.59-2.17,4.45-4.9,4-8.58,0-3.3-3.64-3-5.82-4.1-1.45-1.48-1.6-4.42-4-4.81l-1,5.3c.16,1.66,1.06,3.13,1,5-2,2-.66-1.85-2-2.59-2-2.41-4.76-.61-7.15-.27-1.45-1.12-2.53-2.6-4.37-2.44-.75,1.46.33,2.94.5,4.41-1,4.21-5.56,5.25-4.7,10,.7,2.76,3.64,1.88,4.9,3.91-2.25,4-9,3.38-9.09,8.88.16,1.84,1.8,3.14,3.25,4.26.72.92-.2,1.83-.58,2.74,1.45,1.85,4.24-1.6,4.94.79a2.76,2.76,0,0,0,3.47,1.51c2.77-1.62,3.18-5.28,3.58-8.21.25-1.53.42-4.21,2.81-4.73A93.59,93.59,0,0,1,192,278.37c.3.5.71,1.47-.2,1.65a19.34,19.34,0,0,0-8.62-.1c.88,3.12,4,4.26,6.16,6.3.91.75,2.74.95,2.91,1.87a8.44,8.44,0,0,1-5.32.49c-.82,6.06,11.65,5.6,14.74,9.89-3.11-1.13-6.79.11-9.9-.48,1.24,4.05,5.24,6.48,9.08,7.63,4.37,2.25,10.44,9.82,15.56,10.79,5.14,1.65,14.24-2.93,14.24-2.93" transform="translate(-69.75 -28.92)"/><path class="cls-4" d="M334.1,265.37c1.14,1.47,1.24,4,1.58,6.25,2.9,2.79,2.89,8.33,1.33,11.57-4.88,9.48-16.3,13.38-21.18,23a14.84,14.84,0,0,0-1.58,9.7H310c-2-5.35-1.64-11.25-.29-16.74.57-2.19.85-6.42.45-7.51-.2-.55-1.24-3.32-1.24-3.32,3.3-.14,5.1,2.81,6.54,5.4a26.24,26.24,0,0,1,1.07,2.76c.94-.77,3-2.87,4.44-3.8,4.68-3.1,8.69-6.13,11.32-10.87a6.64,6.64,0,0,0,.24-5.32,3.35,3.35,0,0,0-4-1.69c-2.07,4-8,6.4-10.53,6.11l-1.65-.21c1.31-1.45,3.41-2.78,3.55-4.9-.68-5.15,1.45-10.71,5.28-13,3.05-1.79,7,0,9,2.49" transform="translate(-69.75 -28.92)"/><path class="cls-4" d="M225.12,331.76c-.23.49-3.89,7.37-8.19,9.81a10.17,10.17,0,0,0-2.59,2.35c-.34-6.16,9.06-9.85,10-12.35.19-.51.85-.37.73.19" transform="translate(-69.75 -28.92)"/><path class="cls-4" d="M212.28,331.79c-2.61,3.45-7.92,2.84-11.77,2.61,4,.23,8-2.81,11.59-2.79.3,0,.18.18.18.18" transform="translate(-69.75 -28.92)"/><path class="cls-4" d="M173,335.55a1.18,1.18,0,0,1-1.29.35c0-1.47,1.32-3.1,2.43-4,.72,1.3-.58,3.07-1.14,3.66" transform="translate(-69.75 -28.92)"/><path class="cls-4" d="M215.54,335c-1.56,6-9.07,7.78-13.15,11,1.21-6.21,10.33-8,12.61-11.22.25-.36.7-.58.54.19" transform="translate(-69.75 -28.92)"/><path class="cls-4" d="M173.82,349.13a1.58,1.58,0,0,1-.83,1.64c-.71-1.48-1-5.08-1.4-5.52-.22-.55-.5-1.28.38-1.09,1.16.24,1.81,3,1.85,5" transform="translate(-69.75 -28.92)"/><path class="cls-4" d="M178.18,362c-.56.54-1.43-.48-2-.58s-.57-1,0-.91,2.16.49,2,1.49" transform="translate(-69.75 -28.92)"/><path class="cls-4" d="M238.61,369.33c-3.14,2.35-7.75,4.13-12.13,2.79,4.23-.87,7.55-3,12.13-2.79" transform="translate(-69.75 -28.92)"/><path class="cls-4" d="M267,372.42c.76,1.42,5.92,7.23,5.54,12.71l-.58,2.38c-.89-2.39-1.21-5.88-2.84-8.1-1.44-2.22-3.06-4.62-2.84-7.37,0,0,.27-.56.72.38" transform="translate(-69.75 -28.92)"/><path class="cls-4" d="M233.77,375.51a26.62,26.62,0,0,1-7.2,4.32c-3.24.73-6.6-.45-10.26-1,.74-.54,2.75,0,4-.32,4.06-2,8.48-3.57,13.24-3.15Z" transform="translate(-69.75 -28.92)"/><path class="cls-4" d="M251,379.75c-2.61,3.81-8.75,5.91-9.47,8.61-.88-5.27,6.35-7.92,9.5-10.82.72.56.33,1.57,0,2.21" transform="translate(-69.75 -28.92)"/><path class="cls-4" d="M277.24,390.88l-.95,2.37L275.11,385a17.78,17.78,0,0,0,.63-7c3.69,3.07,1.86,12,1.5,12.86" transform="translate(-69.75 -28.92)"/><path class="cls-4" d="M286.67,384.2c.86,4.78,5.22,8.32,4.62,13.08-2.33-4.62-7.07-7.24-7.19-13.11l-1-5.7c1.64,1.49,2.16,3.88,3.6,5.73" transform="translate(-69.75 -28.92)"/><path class="cls-4" d="M235.39,378.65c0,2-2,4-3.37,5.27-3.33,2.9-8.76,6.62-9.28,9.43s-.79,4.76-.79,4.76c-1.6-3.69-.26-8.81,2-11.71.48-.83,7.78-5.78,11.47-7.75" transform="translate(-69.75 -28.92)"/><path class="cls-4" d="M295.61,388.71a4.69,4.69,0,0,1,.71,1.66c-2.36-2.41-6.73-5.22-7.05-8.89,2.55,1.68,4.38,4.71,6.34,7.23" transform="translate(-69.75 -28.92)"/><path class="cls-4" d="M239.15,385.84c-2.41,2.54-5.91,3.78-8,6.69a2,2,0,0,1,.39-1.82c2.6-3.09,4.66-6.55,8-8.72,1.46.94.29,3.2-.41,3.85" transform="translate(-69.75 -28.92)"/><path class="cls-4" d="M191.65,385.83c0,.45-.33,3.17-1.35,4.1-.46.44-1.65,1.55-2,.45a10.57,10.57,0,0,1,3-4.55c.3-.31.32-.45.36,0" transform="translate(-69.75 -28.92)"/><path class="cls-4" d="M281.05,394.77a3.41,3.41,0,0,1,.22-3.48c.54.92.15,2.57-.22,3.48" transform="translate(-69.75 -28.92)"/><path class="cls-4" d="M196.35,407.53c-1.45-1.3-2.15-3.88-3.79-5,1.53,0,4.39,2.77,3.79,5" transform="translate(-69.75 -28.92)"/><path class="cls-4" d="M209.68,412.64c-1.48.72-1.87,2.54-3.89,2.89a1.42,1.42,0,0,1,.58-2c1.1-.56,2-1.45,3.31-.88" transform="translate(-69.75 -28.92)"/><path class="cls-4" d="M301.5,417.39c-2.43-.6-3.68,1.05-5.7,1.58-.91-.19-.34-1.09,0-1.47,1.23-1.3,5-1.75,5.68-.11" transform="translate(-69.75 -28.92)"/><path class="cls-4" d="M266.8,421.2c-1.95.29-3.76-2.89-4.55-3-.61-.13-.63-.48-.36-.56,1.4-.6,3.47,1.14,4.74,2.26.21.32.54.74.17,1.29" transform="translate(-69.75 -28.92)"/><path class="cls-4" d="M284,421.21a11.18,11.18,0,0,0-6.43,1c-.73-.74.28-1.28.56-1.46,1.67-1.08,4.78-1,5.87.43" transform="translate(-69.75 -28.92)"/><path class="cls-3" d="M248.64,234.1a3.48,3.48,0,0,1-1.32,3.29c-.92.17-1.22-.59-1.09-1.48l.78-4a3.42,3.42,0,0,1,1.63,2.22" transform="translate(-69.75 -28.92)"/><path class="cls-3" d="M258.14,237.33c.52,2.57-1,4.76-2.64,6.21,0,0-.41.5-.55,0-.76-2.69,2.31-4.18,2.82-6.2.12-.5.37,0,.37,0" transform="translate(-69.75 -28.92)"/><path class="cls-3" d="M248.88,245.11c-4,1-9.75,2.09-12.45-1.8l-.18-.37c4.23-.86,10.48-2.26,12.63,2.17" transform="translate(-69.75 -28.92)"/><path class="cls-3" d="M191.27,246.27c-.2,2.19-2,2.72-3.34,3.81a.8.8,0,0,1-1.09-.75c.75-1.27,3-2,3-4.18.93-.91,1.46.38,1.45,1.12" transform="translate(-69.75 -28.92)"/><path class="cls-3" d="M174.67,254.69c-.7.36-3.65,1.78-4,.5,0-1.77,3-1.61,4.43-2.33a6.33,6.33,0,0,0,3-5.65c.58.32,1.38,4.54-3.39,7.48" transform="translate(-69.75 -28.92)"/><path class="cls-3" d="M173.36,272.46c.18.56.62,1.32.17,1.66-1.61.6-2-1.86-3.46-2.61a2.42,2.42,0,0,1-1.81-1.49c0-.55.75-.46,1.1-.54,2-.13,3.13,1,4,3" transform="translate(-69.75 -28.92)"/><path class="cls-3" d="M199.35,277.17c.71,2.21,3.08,3.15,2.87,5.35-2-.72-3.91-1.72-4.71-4.45-.49-1.67-1.6-4.42.61-5.5,1.45,1.12.88,3.13,1.23,4.6" transform="translate(-69.75 -28.92)"/><path class="cls-3" d="M209.27,291a.7.7,0,0,1-1.28,0,13.85,13.85,0,0,1-1.92-8.28,14.93,14.93,0,0,1,3.2,8.29" transform="translate(-69.75 -28.92)"/><path class="cls-3" d="M202.29,291.88c-2-1.13-2.28-3.89-4-5.37-.88-.77-1.64-1.12-2.17-2.22,2.82-1.2,8.06,2,6.14,7.59" transform="translate(-69.75 -28.92)"/><path class="cls-3" d="M216.61,291c0,3.11.11,6.6,1.36,9.36a1.16,1.16,0,0,1-1.65-.2c-2.36-2.23-2.51-5.16-1.56-8.09.33-.67.76-2.19,1.85-1.07" transform="translate(-69.75 -28.92)"/><path class="cls-3" d="M210.44,300.78c.08.3-.18.18-.18.18-1.65-.75-2.73-2.42-3.62-4.08,0,0-.52-.94.37-.73,2.18.27,3.35,4.32,3.43,4.63" transform="translate(-69.75 -28.92)"/><path class="cls-3" d="M208.55,306.07c3.47.59,7.71-.64,10.25,1.59,0,0,.27.38-.19.36-1.17-.2-6.43,1-9.35.08-2.38-1-6-1.72-7.28-4.67,2.37.58,4.19,2.06,6.57,2.64" transform="translate(-69.75 -28.92)"/><path class="cls-3" d="M260.17,267.25c.53,1.65-1.37,1.67-2.58,1.44a3.21,3.21,0,0,1-1.46-.94c.56-1.28,2.4-1.25,3.68-1.42Z" transform="translate(-69.75 -28.92)"/><path class="cls-3" d="M248.89,275.27c2.85,0,3.31-1.15,4.77,0,1.63,1.86,4.19,2.07,6,3.55-2,1.82-4.59.14-6.6-.62-1.84.71-3.65,1.51-5.85.83a15.45,15.45,0,0,1-5.12-3.16c-1.65-.2-3.49-.22-4.58-1.16-.16-1.65,2.22-1.44,3.33-2,2.75.21,5.2,2.56,8,2.56" transform="translate(-69.75 -28.92)"/><path class="cls-3" d="M244.78,281.37l4.77.06c2.18,1.49,4.55,3,7.3,3,0,1.1-1.3,1.08-1.85,1.44-2.21.53-3.47-1.14-4.93-1.7-2.76.52-6.15,1.69-8.26.08s-4.28-.71-5.73-1.83c-1.27-.75-2.75-1.47-1.93-3l3.3.64c3.21.92,3-.18,7.33,1.27" transform="translate(-69.75 -28.92)"/><path class="cls-3" d="M248.54,289.3c3.12,0,4.36,3.36,7.1,4.12-.74.73-2.46,1.45-3.49.69-3.6-2.82-9.15.94-13.23-2.41-2.36-1.93-1.93-3.08-3.57-3.65a10.93,10.93,0,0,1-9-1.21c3-2.16,6.6-.11,9.92-1.53,3.09,2.79,8,5.78,12.24,4" transform="translate(-69.75 -28.92)"/><path class="cls-3" d="M232.73,292.78c1.83,0,2.72,1.9,3.45,2.8s3.4,2.18,4.38,2.06,2.94-1.24,4.21-.13c1.62,2.77,4,5,7.47,4.86-.93,1.09-3,1.25-4.78,1-1.47-.2-2.37-1.49-3.46-2.42-4.95.12-8.79-1.39-11.86-4.73-3.86.51-6.59-1.54-8.57-4.32,0-.36,0-.91.56-.91,2.18,1.31,5.46,3.19,8.6,1.75" transform="translate(-69.75 -28.92)"/><path class="cls-3" d="M227.85,301.9c3.11,1,6.79-.11,9,2.67a19.1,19.1,0,0,1,8.4,2.85,14.66,14.66,0,0,0,5.69-.12c.53,1.48-1.52,1.55-2.22,1.63-3.68.5-6-2.27-9.71-1.22a10.74,10.74,0,0,1-5.1-2.81c-3.11-.77-7.53.47-9-2.86a14.44,14.44,0,0,1-1-4.59c1.82,1.31,1.61,3.68,4,4.45" transform="translate(-69.75 -28.92)"/><path class="cls-3" d="M256.76,309.49c1.68-1.1,2.84-3.16,3.66-.79a4,4,0,0,1-3.16,3.08,4.92,4.92,0,0,1-4-.78c.58-.73,2.14-.61,3.52-1.51" transform="translate(-69.75 -28.92)"/><path class="cls-3" d="M240.41,310.12l5.11,1.71a5.3,5.3,0,0,1,3.3.22c0,1.1-1.62,1.32-2.21,1.25-1.83-.2-3.67-.41-4.94-1.34-2.21.89-5.33,1-7.33-.45-.36-.55-1.09-1.11-.53-1.66,2,.76,4.56,1.89,6.6.27" transform="translate(-69.75 -28.92)"/><path class="cls-4" d="M322.76,231.85c1.18,6-5.9,9.61-7.28,10.37-.74.41-4,1.3-5.5-.24,3.17-4.37,9.46-5.43,12.41-10.13.2-.47.37,0,.37,0" transform="translate(-69.75 -28.92)"/><path class="cls-4" d="M320.62,242.47c-1.36,5.15-8.79,11.5-15,10.64,1.19-2,3.38-6.2,3.38-6.2,4.23-.86,8.09-1.92,11.61-4.44" transform="translate(-69.75 -28.92)"/><path class="cls-4" d="M304.06,246.31c1,5.53-7.72,9.31-11.08,6.65a.59.59,0,0,1,.19-.73c.17-.14,7.05-4.91,10.89-5.92" transform="translate(-69.75 -28.92)"/><path class="cls-4" d="M315,254.14c.15,2.75-1.71,4.93-3.38,6.74a19.15,19.15,0,0,1-9.22,4.11c.4-2.93,2.81-4.92,3.21-7.85a33.14,33.14,0,0,0,9.39-3" transform="translate(-69.75 -28.92)"/><path class="cls-4" d="M290.19,256.78c-.05,4.22-3.4,7.66-6.9,9.64-.56.18-1.62.16-1.46-.93a12.24,12.24,0,0,1,7.09-10.37c1.1-.18,1.23,1.26,1.27,1.66" transform="translate(-69.75 -28.92)"/><path class="cls-4" d="M292.63,267.08c-.91.09-2,.16-2.56-.4l3.76-7.84c2.57-.52,5-2.09,7.55-2.79,0,0-2,9.26-8.75,11" transform="translate(-69.75 -28.92)"/><path class="cls-4" d="M310.44,265.82c-1.88,3.83-6.14,7.45-10.55,7.95,1.13-2,1.88-3.83,2.82-5.65,3.12-.15,4.62-3.25,7.73-2.3" transform="translate(-69.75 -28.92)"/><path class="cls-4" d="M298.32,267.33c-.94,4.95-2.29,6.81-8.36,8.89-.73-.19-.35-.94-.17-1.29,1.3-1.45,1.51-3.47,2.44-5.1,2-.9,3.87-1.61,6.09-2.5" transform="translate(-69.75 -28.92)"/><path class="cls-4" d="M288.38,270.51c.1,1.4-.6,5.19-6.15,7.82-1-1-2.15-6.6,1.19-7.87A35.39,35.39,0,0,1,288,270s.32,0,.37.55" transform="translate(-69.75 -28.92)"/><path class="cls-4" d="M303.71,276.56c-1,2.23-3.8,5.59-10.17,6.67a40.53,40.53,0,0,1,3-5.47c2.39-.52,4.42-1.6,7.17-1.75,0,0,.19-.05,0,.55" transform="translate(-69.75 -28.92)"/><path class="cls-4" d="M289.73,279.88c-.48,3.46-4.21,10.13-9.27,8.51-.16-2-.67-5.32,1.54-6.4a12.53,12.53,0,0,0,6.63-2.3Z" transform="translate(-69.75 -28.92)"/><path class="cls-4" d="M300.69,283.68c-.1,3.71-6.25,7.82-8.88,6.31.24-4.39,6.24-5.3,8.88-6.31" transform="translate(-69.75 -28.92)"/><path class="cls-4" d="M285.9,293.41c-.88,3.11-5.76,7.37-9,5.39-1.26-2,.87-3.19,1.75-5.19,2.5-1.73,4.93-1.14,7.15-2.59,1.06-.46.56,1,.15,2.39" transform="translate(-69.75 -28.92)"/><path class="cls-4" d="M295.62,293.89c-.47.63-5,5.42-8.48,3.39.57-1.47,1.68-2.37,2.43-3.64,1.09-1.73,3.68-.4,6.06-.67.37,0,.45.29,0,.92" transform="translate(-69.75 -28.92)"/><path class="cls-4" d="M293.54,299.55c.21,3.18-7.28,7.35-8.5,4.85,1.3-1.08,2.13-2.75,3.71-3.62,1.65,0,3.13-1.25,4.79-1.23" transform="translate(-69.75 -28.92)"/><path class="cls-4" d="M281.4,302.16c-1.13,2.37-4.07,3.07-6.63,2.86-1.1-.56-3.12-.22-3.84-1.33,3-2.9,7-1,10.47-1.53" transform="translate(-69.75 -28.92)"/><path class="cls-4" d="M275.82,308.7c-.75,1.64-3.13,1.61-5,1.95-3.3-.22-5.11-2.44-6.54-5.21a4,4,0,0,1,3.85-.5c2.56,1.13,5.11,2.44,7.66,3.76" transform="translate(-69.75 -28.92)"/><path class="cls-4" d="M290,307.39c1,1.41-2.67,2.79-3.34,3.08-2.08,1.13-3.84-.41-5.3-1.34-.55-.38-1.09-.93-1.09-1.48,2.78-2.35,6.61-.29,9.73-.26" transform="translate(-69.75 -28.92)"/><path class="cls-4" d="M284,313.38c-1.85,1.63-5.15,1.22-7.53.64-.59-.15-.34-.89.2-.91,1.29-.54,3.33-2.53,5.15-1.23Z" transform="translate(-69.75 -28.92)"/><path class="cls-4" d="M274.43,317.85c-1.12,1.82-3.7,2.53-5.9,2.86-.91-.74-2-.57-2.74-1.5,2.21-.7,4.78-1,7-2.11.79-.37,1.82-.09,1.64.75" transform="translate(-69.75 -28.92)"/><path class="cls-4" d="M229.51,254.05s.56,0,0,.37c-1.15.67-6.22-1.36-8.26.63-3.34,2.9-8.31,5.23-13.07,4.07,1.11-.72,3-.71,4.24-1.42,3.57-2,6.15-8.73,11.63-7a21.08,21.08,0,0,0,5.46,3.36" transform="translate(-69.75 -28.92)"/></g><g class="cls-2"><path class="cls-3" d="M238.78,163.84l.2,2.29c-5.17,3.61-11.07,6.11-15.52,10.46-6.5,6.34-10.07,14.18-11.83,23.15-.23,3.71,4.17,4.2,4.17,4.2,1.22,2.69,2.69,1,3.18,4.89s1.47,15.4,5.87,17.12,20.73-2.72,28.85-11.74c2.2-2.45,6.11,4.89,9.29,2.93,10.76.25,20.28-16.14,20.28-16.14h25.92s7.1-23.47-1.45-31.05-13.69-8.56-15.65-7.82-15.4-14.67-14.92-17.12c4.89-1.95,5.18-22.17,1.23-34.23-4.89-14.91-42-19.24-52.82,2.44-2.93,5.87-3.18,13.21-2.44,18.1-7.83,8.56,3.42,25.43,5.86,33,3.67,2.69,9.78-.49,9.78-.49" transform="translate(-69.75 -28.92)"/><path class="cls-5" d="M258,94.46c.72,1.3,1.8,2.78,2,4.43-2.39.15-5.14.12-6.95-1.55-.91-1.11-2.54-2.41-2.15-4.43,2.4-1.25,5.13.25,7.13,1.55" transform="translate(-69.75 -28.92)"/><path class="cls-5" d="M269.29,99.55c-2,.34-4-.42-5.85-1.17-1.64-1.3-2.16-3.33-3.25-5,.93-.91,2.95-.7,4,0a12.68,12.68,0,0,1,5.06,6.11" transform="translate(-69.75 -28.92)"/><path class="cls-5" d="M250.23,98.22c.54,1.48-1.11.91-1.66,1.27a7.86,7.86,0,0,1-7.66-3.76,2,2,0,0,1,1.31-2.55c3.5-.51,6.77,1.91,8,5" transform="translate(-69.75 -28.92)"/><path class="cls-5" d="M279.22,97.46c.72,1.3-.58,2.57-1.68,2.74-2,.34-4.58-.24-5.49-1.72-.71-1.29-1.62-2.22-1.6-3.87,1.12-1.27,3.68-1.06,5.14-.49a8.06,8.06,0,0,1,3.63,3.34" transform="translate(-69.75 -28.92)"/><path class="cls-5" d="M237.42,96.24c.54,1.29,2.35,2.6,1.24,3.87a8.64,8.64,0,0,1-6.06.29A4,4,0,0,1,229.88,98a3,3,0,0,1,2.05-2.72c2-.9,4,0,5.49,1" transform="translate(-69.75 -28.92)"/><path class="cls-5" d="M274.83,112.45c.68,4.23-2.61,7.62-4.7,9.85A51.24,51.24,0,0,1,230.94,133c-3.48-1.14-2.14-5.53-2.29-8.47.07-5.5,2.69-10,5.85-14,7.05-7.07,19.35-7.84,29.41-5.71,3.11.59,10.76,3.6,10.92,7.65" transform="translate(-69.75 -28.92)"/><path class="cls-3" d="M255.46,105.81c0,1.65-1.69,3.19-3.34,4-4,1.91-7.21,4.87-11.27,6.29,0,0-.33,0-.18-.19.68-1.46,10.93-8.38,14.06-10.1a.72.72,0,0,1,.73,0" transform="translate(-69.75 -28.92)"/><path class="cls-3" d="M261.69,106.79c-.39,2-2.69,3.09-3.9,3.81-3.32,1.8-5.55,4-9,4.85,2.71-4,12.07-8.61,12.39-8.84s.55.18.55.18" transform="translate(-69.75 -28.92)"/><path class="cls-3" d="M246.64,107.72c-.75.3-6.64,6.1-10.73,7.39,0,0-.44.09-.4,0,.3-1.06,7.43-7.59,11.14-8.07.09,0,.74.42,0,.73" transform="translate(-69.75 -28.92)"/><path class="cls-3" d="M265.88,109.41a14.14,14.14,0,0,1-9.24,5.94l8.14-6.5c.37,0,.92,0,1.1.56" transform="translate(-69.75 -28.92)"/><path class="cls-3" d="M270.12,111.48c-2.41,4.08-11,7.41-12.07,8.66-.72.49-.74,0-.74,0,1.68-2.18,5-4,7.41-5.78,1.66-.72,2.8-4.19,5.18-3.61a.66.66,0,0,1,.22.74" transform="translate(-69.75 -28.92)"/><path class="cls-3" d="M272.25,115.45c.64.48-.05,1.74-.05,1.74-6.11,5.8-16.43,10.93-19.2,11.33-.69.2-.37-.19-.37-.19,4.26-3.43,10.16-6.12,14.61-9.73,1.66-1.08,2.93-4.85,5-3.15" transform="translate(-69.75 -28.92)"/><path class="cls-3" d="M253.06,123.38a30.79,30.79,0,0,1-13.59,1.31,4.25,4.25,0,0,1-1.79-3.51c1-4,5.87-1.6,8.81-2.51,2.17-.55,5.34-2.53,7.93-1.69.92.37,1,5.88-1.36,6.4" transform="translate(-69.75 -28.92)"/><path class="cls-5" d="M251.62,121c-1.68,2.37-8.34,1.36-8.82,1.37s-.18-.37-.18-.37c2.58-.89,5.69-.3,7.91-2.3a1,1,0,0,1,1.09,1.3" transform="translate(-69.75 -28.92)"/><path class="cls-3" d="M224.91,140.52c-.4.91.06,1.06.06,1.06,10.36,3.1,16.05-.33,16.05-.33-5.13-.43-10.36-.34-15.12-1.31a1.06,1.06,0,0,0-1,.58" transform="translate(-69.75 -28.92)"/><path class="cls-5" d="M224.84,136.62c.8-.47,1.06.86,6,1.72s27.11,2.09,44.36-13.41c.92-.36,1,.65,1.09,1.11a29.67,29.67,0,0,1-2.58,16.48c-11.29,9-25.66,14.55-40.55,17.49-3.67,0-2.7-4.25-4.15-6.47a39.36,39.36,0,0,1-4.63-11.42s-1.58-4.32.43-5.5" transform="translate(-69.75 -28.92)"/><path class="cls-3" d="M273.87,131.51c-5.94,5.62-13.68,8.65-22.3,9.09,0,0-.68-.23,0-.55,6.57-1.86,14.92-6.06,21.76-10a.58.58,0,0,1,.73.19,1.19,1.19,0,0,1-.2,1.28" transform="translate(-69.75 -28.92)"/><path class="cls-3" d="M273.82,135.73c0,1.65-1.84,2.44-3,3.08-5.17,2.88-11.06,4.28-16.76,6.22-.7.1-1.34-.1-1.47-.38s.38-.54.38-.54c6.45-3.23,13.45-5.71,19.36-9.31a1.09,1.09,0,0,1,1.46.93" transform="translate(-69.75 -28.92)"/><path class="cls-3" d="M272.1,141.21c-5.19,5.08-12,6.65-18.8,8.22a.71.71,0,0,1-.56,0,.31.31,0,0,1-.17-.37c2.59-1.8,6.26-2.31,9.22-4.11,3.54-1.92,8.72-5.19,10.7-5,.2.37-.39,1.28-.39,1.28" transform="translate(-69.75 -28.92)"/><path class="cls-3" d="M241.44,144.52c-3.7,2.16-8.65,2.65-13.41,1.86-.55,0-.73-.56-.54-1.11,3.68-.87,7.69-.41,11.14-.75Z" transform="translate(-69.75 -28.92)"/><path class="cls-3" d="M242.13,148a23.4,23.4,0,0,1-13.41,2.23c-.54-1.47,1.48-1.45,2.4-1.62,3.67-.14,7.34-.83,11-.61" transform="translate(-69.75 -28.92)"/><path class="cls-5" d="M280.35,157.82a28,28,0,0,0,8.53,7.61c.35.93.7,2-.22,2.57-9.8,7.4-14.52,18.35-20.88,28.73-1.3,2-3.84-.23-5.67-1-2.55-1.32-3.81-3.16-6-4.66l-.92.17c-5,6.73-11.15,12.53-19.07,15.92-1.09-1.11-1.06-3.31-.86-5,.06-4.95,2.49-8.78,3.27-13.35-2.19-.76-4.58-.42-6.77-1-.17-1.47,1-3.11,1.89-4.56,3.55-5.65,8.74-10.35,15.18-12.29a21.8,21.8,0,0,1-3.91,5.27l.54.19c1.84-.35,3.51-1.61,5.52-1.22,0,1.47-2,1.63-2.24,3.09,2.39-.34,4.43-2.33,7-1.2.54.37,1.07,2,2.36,1.5,1.32-2.92-.3-5.33-1-8.09,0,0-3.83-7.63-4.12-8.48a.8.8,0,0,1,.38-1.1c7-3.58,14-7.9,20.67-11.31,2.91,2.24,4,5.37,6.33,8.15" transform="translate(-69.75 -28.92)"/><path class="cls-3" d="M244.3,150.61a16.3,16.3,0,0,1-12.14,3.15c-.18-.18-.91-.56-.35-1.1,4.22-.32,8.27-1.55,12.49-2" transform="translate(-69.75 -28.92)"/><path class="cls-3" d="M273.24,153.51c-3.16,3.82-7.4,5.42-11.64,7.39h-.91v-.56c4.79-1.77,7.41-6,12.37-7.19Z" transform="translate(-69.75 -28.92)"/><path class="cls-3" d="M234.08,155.28c2.81,0,8.68-1.89,10.73-1.55a12.72,12.72,0,0,1-3.87,2c-2.58.89-5.53,2.5-8.08,1-.22-.33.24-1.21,1.22-1.43" transform="translate(-69.75 -28.92)"/><path class="cls-3" d="M274.87,155.92c-.21,1.83-1.32,2.36-2.61,3.27-3.32,1.79-6.28,3.77-9.95,4.28A71.61,71.61,0,0,1,274,155.72Z" transform="translate(-69.75 -28.92)"/><path class="cls-3" d="M276.67,158.32a4.48,4.48,0,0,1-2.42,3.09c-2.95,1.25-5.73,4-9.41,4.66,3-2.9,6.3-4.88,9.45-7.59.73,0,1.65-.72,2.38-.16" transform="translate(-69.75 -28.92)"/><path class="cls-3" d="M278.48,160.91c-.39,1.65-2.61,3.27-4.27,3.8-1.66.9-3.7,2.71-5.72,2.87a40,40,0,0,1,8.89-6.87Z" transform="translate(-69.75 -28.92)"/><path class="cls-3" d="M281.38,163.7a46.6,46.6,0,0,1-12,7.74l.37-.91c3.34-3.08,6.49-5.8,11.09-7.57.56,0,.92.37.55.74" transform="translate(-69.75 -28.92)"/><path class="cls-3" d="M283.36,166.47c-1.57,2.14-4.23,3.42-5.37,4.34-2.77,1.8-5.37,4.7-8.51,5.95V176c3.53-3.45,8-8.16,12.78-10.31.36.37,1.1,0,1.09.75" transform="translate(-69.75 -28.92)"/><path class="cls-3" d="M286.1,167.6l-.38,1.1c-3.34,2.71-7,4.87-9.63,8.14a39.41,39.41,0,0,1-3.72,4.17l-.18-.37s1.76-3.14,2.44-4.19c3-3.26,6.5-6.89,10.37-9,.37,0,.74-.18,1.1.19" transform="translate(-69.75 -28.92)"/><path class="cls-5" d="M304.38,172.77c.72,1.29,1.81,2.22,1.42,3.68-1.11.91-2.14-.78-3.29-.95-5.49-.62-9.93,2.63-12.92,6.82,0,0-3,4.18-4.47,6.18-6,8.73-10.3,18.22-19.35,24-2,1.08-3.83-.31-5.31-1.35-1.87-1.31-3.25-3.7-5.65-3-7.22,6.34-15.56,13-25.84,14.37-1.88.11-2.75-2.91-3.43-4.63A40.13,40.13,0,0,1,223.35,201c.39-2-1.81-2.23-3.09-2.42-.91,0-2-.39-2-1.31-.06-10.82,7.2-19.72,16.6-23.65-4.82,4.53-8.74,10.35-9.92,17.31,1.08,1.66,3.65,1.14,5.48,1.71.73,0,1.83,0,1.82.94-1.17,5.86-2.35,12.81,0,18.71.9,1.48,2.74.58,4,.41,7.55-3.21,15.29-9.14,19.06-14.63.44-.65.92-.35.92-.35,4.38,1.88,7.28,5,11.85,5.82,2.4-1.26,11.75-16.73,14.18-20.37a36.83,36.83,0,0,1,7.81-9.08c3.69-2.34,10.53-6.3,14.32-1.3" transform="translate(-69.75 -28.92)"/><path class="cls-5" d="M284.36,199.3a3.34,3.34,0,0,1,.27-.54c.86-1.41,8.71-16.86,14.89-18.35,2.57,0,4,2.07,4.9,4.28.95,4.88,1.12,11-2.27,14.62Z" transform="translate(-69.75 -28.92)"/><path class="cls-3" d="M250.87,184.61c1.47,0,2.22-1.44,3.86-1.05,3.83,2.24,7.15.26,10.48-1.53.92-.36,1.27.38,1.64.75.7,2.21-.6,4-1.9,5.48-.58.84-4.06,2.15-5.89,1.76-1.65,0-2.73-2-4.39-1-1.66,1.26-3.52,2.89-6.08,2.49a7.34,7.34,0,0,1-5.28-3.54,8.41,8.41,0,0,1-.29-6.61,2.89,2.89,0,0,1,1.49-1.45c1.63,1.49,3.05,5.17,6.36,4.66" transform="translate(-69.75 -28.92)"/><path class="cls-3" d="M299.3,183.16a5.78,5.78,0,0,1-2.59,2.54l-.37-.19a5.28,5.28,0,0,1,3-2.35" transform="translate(-69.75 -28.92)"/><path class="cls-5" d="M252.68,187c-2.39,4.65-9.36.7-7.62-3.37a11.22,11.22,0,0,0,7.62,3.37" transform="translate(-69.75 -28.92)"/><path class="cls-3" d="M301.29,185.75l-6.47,4.51h-.55l.38-.92c2-1.44,3.9-4.17,6.83-4.5Z" transform="translate(-69.75 -28.92)"/><path class="cls-5" d="M264.69,184.33c-.05,3-4.15,4.25-6.71,3.85a2.87,2.87,0,0,1-2.37-2c2.79.77,7.47-.18,9.08-1.88" transform="translate(-69.75 -28.92)"/><path class="cls-3" d="M302.37,188a36.49,36.49,0,0,1-9.62,7l.19-.74c2.78-2.71,4.64-5.26,8.15-6.69.36.19,1.1-.17,1.28.39" transform="translate(-69.75 -28.92)"/><path class="cls-3" d="M302.13,192.73c-2.79,2.72-5.92,4-8.69,5.59a19.83,19.83,0,0,1,7.78-6.7l.92.2Z" transform="translate(-69.75 -28.92)"/><path class="cls-3" d="M248.64,234.1a3.48,3.48,0,0,1-1.32,3.29c-.92.17-1.1-.56-1.09-1.48l.78-4a3.42,3.42,0,0,1,1.63,2.22" transform="translate(-69.75 -28.92)"/></g><g class="cls-2"><path class="cls-3" d="M229.07,104.58a5.89,5.89,0,0,1-3.25-4.63,7.48,7.48,0,0,1,1.36-6.4c3-4.47,9.54-.44,13.25-3.51.74-1.09-.34-2.21-.33-3.49-.16-2,.34-4.26,2.08-5.11,2.4-1.07,5.29-.19,7.06.67s2.74,3.46,4.95,2.75c.92-.2,1.53-.51,1.35-1.43a25.19,25.19,0,0,1-14-9.52c-4.15-5.73-6.06-14.37-3.05-21.12-.53-1.48-2.17-2-2-3.38.19-1.59-2.38-1.16-2.68-2.73-.07-2.41-1.69-2.5-2.14-5-.16-1.47,1.3-2,1.5-2.91s-.24-2.37.23-3.3,2-.81,2.59-2.17c-.88-3.13,2.77-1.8,3.88-2.89.94-1.64,3.14-1.62,4.79-1.41l2.22.83c1.53-1,4,.06,4.28,1.4a1.55,1.55,0,0,0,2.45.44c.76-2.37,3.77-1.6,5.32-1.23,2.4-2.17,4.05.24,6.62.27,2.38,0,2.92,3.47,3.44,3.89s3.1,1.14,2.71,3.34c-1.14,2.73,2,4.79-.45,7-3.17,4.36,2.3,7,3.17,10.86L277.56,67c1.45,1.85,4.74,2.07,6.95,1.73,1.62,2.41.85,6.6-.64,7.51-1.44,1.29-5.52,1.41-4.09,4.72.7,3.13,2.68,5.72,3.94,8.3.17.92-.56.92-1.11.91-3.48-.41-6-3.19-8.76-4.14a4.65,4.65,0,0,0,.51,3.49c1.62,2.4,6.49,4.46,7.09,5a4.26,4.26,0,0,1,2.16,4.24,6.75,6.75,0,0,1-2,5,8,8,0,0,1-5.37,2.32c-2.51.19-11.55-5.13-20.72-4.52s-17.79,6.06-26.47,3" transform="translate(-69.75 -28.92)"/><path class="cls-5" d="M250,37.52c.52,2.57,1,6.24-.65,8.43-1.48,1.44-3.7,3.07-6.26,2.67-2,0-3.66-1.32-4.93-2.44-2-1.85-1.22-5.15-1-7.71.59-3.3,4.09-4.36,7-4.87A6.39,6.39,0,0,1,250,37.52" transform="translate(-69.75 -28.92)"/><path class="cls-5" d="M266.71,38.81c1.24,2.95-.08,6.61-1.76,8.79-2.4,1.62-5.9,3-8.82,1.18a7.61,7.61,0,0,1-3.39-7.56c.77-2.93,2.46-6.21,5.77-6.9,3.85-.33,6.77,1,8.2,4.49" transform="translate(-69.75 -28.92)"/><path class="cls-3" d="M247.61,41c-.27,1.35-1.82,2.27-3,2.72-2.43,1-5.86-2.84-3.42-5.54a3.91,3.91,0,0,1,2.95-1.62A4,4,0,0,1,247.61,41" transform="translate(-69.75 -28.92)"/><path class="cls-3" d="M263,40.05c.54,1.11.16,2.21-.22,3.49s-3,2.9-4.79,1.41c-1.81-1.31-2.53-3.15-1.59-5.16a4,4,0,0,1,3.14-2A3.89,3.89,0,0,1,263,40.05" transform="translate(-69.75 -28.92)"/><path class="cls-5" d="M245.16,40.12c-.1.59-.66.52-1.16.51s-.77-1.32,0-1.57c.78,0,1.25.38,1.14,1.06" transform="translate(-69.75 -28.92)"/><path class="cls-5" d="M260.53,40.88c0,.41-.62,1-1.23,1.2-.4-.13-1-.41-.79-1,.21-1,1.84-1.4,2-.18" transform="translate(-69.75 -28.92)"/><path class="cls-5" d="M253.21,50.81c-.37,1.1-2.87,3.36-3.42,3-.91-.56-.46-3.1.09-3.64.76-1.44,3.72-1.19,3.33.64" transform="translate(-69.75 -28.92)"/><path class="cls-5" d="M248.53,56.21l3.83,1.88c1.93,7.17,5,14.18,10,19.92,0,1.47-2.21,1.44-3.68,1.42a12.81,12.81,0,0,1-9.32-2.67c-6.55-5-9.2-13.32-8-21.19a3.56,3.56,0,0,1,3.7-2.71c2,.21,2,2.41,3.45,3.35" transform="translate(-69.75 -28.92)"/><path class="cls-5" d="M261.2,54.52c1.31-1.63,3.68-1.24,5.32-.3a1.21,1.21,0,0,1,2,.2C272.7,59.61,273,67,273.45,73.74,270,70.4,268,60.53,267.75,59c-2.6,2.9.59,12.29.76,13.21-4-1.77-5.56-10.52-6.45-12.91-1.67,2.18-.79,5.49-.46,8.25l.69,3.31a17.32,17.32,0,0,1-5.58-8.5,25,25,0,0,1-.45-8.26c.19-1.28,1.85-1.27,2.57-.71s1.45,1.85,2.37,1.13" transform="translate(-69.75 -28.92)"/><path class="cls-5" d="M281.71,72.92c-.2,1.1-1.12,1.45-2,1.81-.92.54-1.09-.75-1.27-1.12,0-.92,0-2.2.94-2.19.73.38,2.94-.33,2.37,1.5" transform="translate(-69.75 -28.92)"/><path class="cls-5" d="M270.21,84.15A1.29,1.29,0,0,1,268.53,86c-1.28-.38-2.37-.76-2.91-1.87a2.45,2.45,0,0,1,1.87-2.55c1.64.21,2.18,1.13,2.72,2.6" transform="translate(-69.75 -28.92)"/><path class="cls-5" d="M268.31,89.63c.18.37-.19.73-.38.92-2.55-1.68-8.43-.1-7.83-4.86.56-1.1,1.66-.72,2.57-.16Z" transform="translate(-69.75 -28.92)"/><path class="cls-5" d="M256.22,88.39A1.75,1.75,0,0,1,258,89.51c.36.74-.56.91-.93,1.09-2.92-1.13-6.58-1.91-9.53-.84-2.44.24-3.29-.41-3.64-2.25-.2-1-.53-2,.58-2.56,4.4.42,7.1,4.3,11.7,3.44" transform="translate(-69.75 -28.92)"/><path class="cls-5" d="M258,94.46c.72,1.3,1.8,2.78,2,4.43-2.39.15-5.14.12-6.95-1.55-.91-1.11-2.54-2.41-2.15-4.43,2.4-1.25,5.13.25,7.13,1.55" transform="translate(-69.75 -28.92)"/><path class="cls-5" d="M269.29,99.55c-2,.34-4-.42-5.85-1.17-1.64-1.3-2.16-3.33-3.25-5,.93-.91,2.95-.7,4,0a12.68,12.68,0,0,1,5.06,6.11" transform="translate(-69.75 -28.92)"/><path class="cls-5" d="M250.23,98.22c.54,1.48-.93,1.19-1.66,1.27a7.86,7.86,0,0,1-7.66-3.76,2,2,0,0,1,1.31-2.55c3.5-.51,6.77,1.91,8,5" transform="translate(-69.75 -28.92)"/><path class="cls-5" d="M279.22,97.46c.72,1.3-.58,2.57-1.68,2.74-2,.34-4.58-.24-5.49-1.72-.71-1.29-1.62-2.22-1.6-3.87,1.12-1.27,3.68-1.06,5.14-.49a8.06,8.06,0,0,1,3.63,3.34" transform="translate(-69.75 -28.92)"/><path class="cls-5" d="M237.42,96.24c.81,1,2.35,2.6,1.24,3.87a8.64,8.64,0,0,1-6.06.29A4,4,0,0,1,229.88,98a3,3,0,0,1,2.05-2.72c2-.9,4,0,5.49,1" transform="translate(-69.75 -28.92)"/></g></svg>